<svg width="351" height="304" viewBox="0 0 351 304" fill="none" xmlns="http://www.w3.org/2000/svg">
<path d="M125.455 88.3878L73.1576 106.123C72.5275 106.333 71.8274 106.147 71.384 105.633C70.964 105.12 70.894 104.397 71.2207 103.79L84.2191 80.4301C84.5924 79.7533 85.4092 79.4266 86.1326 79.6833L94.2304 82.297L99.061 75.296C99.5044 74.666 100.345 74.4093 101.045 74.736L125.571 85.3774C126.178 85.6341 126.575 86.2642 126.551 86.9409C126.551 87.5943 126.108 88.1777 125.455 88.3878ZM76.1213 101.69L120.437 86.6609L100.998 78.2364L96.2373 85.1207C95.8406 85.7041 95.0939 85.9608 94.3938 85.7508L86.4127 83.1838L76.1213 101.69Z" fill="#9DBDE4"/>
<path d="M73.1751 106.115C72.9651 106.185 72.7317 106.209 72.4983 106.185C71.8682 106.139 71.3081 105.695 71.0981 105.089L60.6201 74.1678C60.4334 73.5844 60.5734 72.931 60.9934 72.511C61.4135 72.0676 62.0669 71.9042 62.6503 72.1142L86.1268 79.6752C86.5935 79.8153 86.9669 80.1653 87.1302 80.632C87.3169 81.0754 87.2703 81.5888 87.0369 82.0089L74.0385 105.369C73.8752 105.719 73.5718 105.999 73.1751 106.115ZM64.7506 76.1981L73.0117 100.585L83.2564 82.1722L64.7506 76.1981Z" fill="#9DBDE4"/>
<path d="M125.461 88.3948C125.087 88.5114 124.667 88.5114 124.294 88.3481L99.7673 77.7067C99.3239 77.52 98.9739 77.1233 98.8572 76.6565C98.7172 76.1898 98.8105 75.6764 99.0905 75.2797L113.139 55.0003C113.489 54.4869 114.096 54.2302 114.703 54.3236C115.309 54.4169 115.823 54.837 116.009 55.4204L126.488 86.3412C126.698 86.9479 126.511 87.6247 126.044 88.068C125.881 88.2081 125.671 88.3247 125.461 88.3948ZM102.894 75.5131L122.24 83.9142L113.979 59.5276L102.894 75.5131Z" fill="#9DBDE4"/>
<path d="M95.4269 85.7547C95.1002 85.8713 94.7502 85.8713 94.4001 85.7547L61.6591 75.2066C60.9823 74.9966 60.5389 74.3665 60.5389 73.6664C60.5389 72.9663 60.9823 72.3362 61.6357 72.1029L113.933 54.3672C114.586 54.1338 115.333 54.3672 115.753 54.9272C116.173 55.4873 116.196 56.2574 115.8 56.8408L96.2203 85.1012C96.0336 85.428 95.7303 85.638 95.4269 85.7547ZM67.3532 73.6197L94.2367 82.2775L110.316 59.0578L67.3532 73.6197Z" fill="#9DBDE4"/>
<path d="M120.914 268.985L65.6764 296.382C64.9997 296.709 64.2062 296.592 63.6462 296.102C63.0861 295.589 62.8994 294.796 63.1794 294.095L74.0775 266.302C74.4042 265.485 75.2444 265.018 76.0845 265.182L85.4424 266.862L89.7596 258.414C90.1563 257.644 91.0431 257.247 91.8832 257.481L120.61 265.602C121.334 265.812 121.847 266.442 121.917 267.189C121.987 267.935 121.59 268.659 120.914 268.985ZM68.2901 291.038L115.08 267.819L92.3266 261.378L88.0794 269.709C87.706 270.432 86.9359 270.806 86.1425 270.666L76.9479 269.009L68.2901 291.038Z" fill="#C9FAD1"/>
<path d="M65.6778 296.367C65.4444 296.484 65.211 296.554 64.9543 296.554C64.2309 296.577 63.5775 296.181 63.2508 295.551L47.0553 262.88C46.7519 262.273 46.8219 261.526 47.2187 260.989C47.6387 260.429 48.3155 260.173 48.9922 260.289L76.1092 265.167C76.6459 265.26 77.1127 265.587 77.3694 266.077C77.6261 266.544 77.6727 267.127 77.4627 267.617L66.5646 295.411C66.4012 295.854 66.0745 296.181 65.6778 296.367ZM51.9093 264.513L64.6977 290.277L73.3088 268.364L51.9093 264.513Z" fill="#C9FAD1"/>
<path d="M120.904 268.989C120.507 269.176 120.04 269.246 119.597 269.106L90.8697 260.985C90.3563 260.845 89.9129 260.471 89.7029 259.958C89.4929 259.468 89.4929 258.884 89.7496 258.394L102.281 233.868C102.585 233.261 103.215 232.864 103.915 232.888C104.592 232.888 105.222 233.284 105.525 233.891L121.72 266.562C122.047 267.216 121.954 267.986 121.487 268.522C121.324 268.732 121.137 268.896 120.904 268.989ZM93.9968 258.091L116.656 264.509L103.868 238.745L93.9968 258.091Z" fill="#C9FAD1"/>
<path d="M87.2594 270.533C86.9094 270.696 86.536 270.766 86.1392 270.696L48.3576 263.905C47.5875 263.765 46.9807 263.158 46.8874 262.365C46.7707 261.595 47.1674 260.825 47.8675 260.475L103.105 233.078C103.805 232.728 104.645 232.868 105.205 233.428C105.765 233.988 105.882 234.828 105.532 235.528L88.0762 269.716C87.8895 270.089 87.6095 270.369 87.2594 270.533ZM54.4017 261.291L85.4392 266.869L99.7677 238.772L54.4017 261.291Z" fill="#C9FAD1"/>
<path d="M298.162 228.664L241.828 204.371C241.151 204.068 240.708 203.391 240.731 202.644C240.755 201.898 241.245 201.244 241.945 201.011L270.065 191.396C270.882 191.116 271.792 191.443 272.212 192.19L276.949 200.357L286.144 198.187C286.984 198 287.848 198.421 288.198 199.191L300.519 226.214C300.823 226.891 300.683 227.684 300.169 228.221C299.656 228.805 298.862 228.945 298.162 228.664ZM247.569 202.901L295.292 223.484L285.537 202.061L276.483 204.185C275.713 204.371 274.896 204.021 274.499 203.321L269.832 195.27L247.569 202.901Z" fill="#F59A00"/>
<path d="M241.817 204.368C241.584 204.275 241.374 204.135 241.21 203.925C240.72 203.411 240.604 202.641 240.884 201.988L255.259 168.663C255.539 168.033 256.122 167.613 256.822 167.567C257.499 167.52 258.153 167.87 258.503 168.453L272.248 192.163C272.528 192.63 272.575 193.19 272.388 193.703C272.201 194.217 271.781 194.614 271.268 194.777L243.147 204.392C242.681 204.555 242.214 204.532 241.817 204.368ZM257.126 173.401L245.808 199.678L267.977 192.117L257.126 173.401Z" fill="#F59A00"/>
<path d="M298.149 228.658C297.753 228.495 297.403 228.168 297.216 227.748L284.894 200.724C284.661 200.234 284.684 199.674 284.918 199.184C285.151 198.694 285.594 198.344 286.131 198.227L312.805 191.95C313.458 191.786 314.158 192.02 314.602 192.556C315.045 193.07 315.138 193.817 314.882 194.423L300.506 227.748C300.226 228.401 299.573 228.821 298.873 228.845C298.639 228.798 298.383 228.751 298.149 228.658ZM289.118 201.214L298.826 222.52L310.144 196.244L289.118 201.214Z" fill="#F59A00"/>
<path d="M275.335 204.092C274.985 203.952 274.681 203.672 274.495 203.345L255.336 170.301C254.939 169.624 255.032 168.784 255.546 168.2C256.059 167.617 256.899 167.43 257.623 167.734L313.957 192.027C314.68 192.33 315.1 193.077 315.053 193.847C314.983 194.617 314.423 195.271 313.677 195.457L276.502 204.208C276.058 204.302 275.662 204.255 275.335 204.092ZM261.193 173.218L276.945 200.381L307.492 193.194L261.193 173.218Z" fill="#F59A00"/>
<path d="M81.8619 226.154H81.7919C81.4652 226.154 81.2085 225.897 81.2318 225.57C81.2318 225.244 81.4885 225.01 81.8152 225.01H81.8852C83.4021 225.01 84.919 224.917 86.4125 224.754C86.7392 224.707 87.0193 224.94 87.0426 225.267C87.066 225.594 86.8559 225.874 86.5292 225.897C84.989 226.06 83.4021 226.154 81.8619 226.154ZM75.2577 225.594C75.2344 225.594 75.1877 225.594 75.1643 225.594C73.6008 225.337 72.0606 224.964 70.5437 224.52C70.2403 224.427 70.077 224.1 70.147 223.797C70.2404 223.493 70.5671 223.33 70.8705 223.4C72.3407 223.843 73.8575 224.193 75.3744 224.45C75.6778 224.497 75.8878 224.8 75.8411 225.104C75.7711 225.407 75.5378 225.594 75.2577 225.594ZM92.8767 224.567C92.62 224.567 92.41 224.403 92.3166 224.147C92.2233 223.843 92.41 223.517 92.7133 223.423C94.1835 223.003 95.6537 222.467 97.0539 221.86C97.334 221.743 97.684 221.86 97.8007 222.163C97.9174 222.443 97.8007 222.793 97.4973 222.91C96.0504 223.54 94.5336 224.077 93.0167 224.52C92.9934 224.567 92.9234 224.567 92.8767 224.567ZM64.5696 222.163C64.4763 222.163 64.4063 222.14 64.3129 222.116C62.8894 221.416 61.4892 220.646 60.159 219.783C59.9023 219.619 59.809 219.246 59.9957 218.989C60.159 218.733 60.5324 218.639 60.7891 218.826C62.0726 219.666 63.4261 220.413 64.803 221.09C65.083 221.23 65.1997 221.58 65.0597 221.86C64.9897 222.046 64.803 222.163 64.5696 222.163ZM103.075 219.946C102.888 219.946 102.701 219.853 102.585 219.689C102.421 219.433 102.491 219.059 102.748 218.896C104.031 218.079 105.292 217.146 106.482 216.189C106.715 215.979 107.089 216.026 107.299 216.259C107.509 216.492 107.462 216.866 107.229 217.076C106.015 218.079 104.708 219.013 103.378 219.876C103.308 219.9 103.191 219.946 103.075 219.946ZM55.3051 215.886C55.1651 215.886 55.025 215.839 54.9083 215.746C53.7415 214.672 52.6214 213.529 51.5946 212.339C51.3845 212.105 51.4079 211.732 51.6646 211.522C51.8979 211.312 52.2713 211.335 52.4814 211.592C53.4848 212.759 54.5583 213.879 55.7018 214.906C55.9352 215.116 55.9585 215.489 55.7485 215.722C55.6084 215.816 55.4684 215.886 55.3051 215.886ZM111.569 212.619C111.429 212.619 111.312 212.572 111.196 212.479C110.962 212.269 110.939 211.918 111.149 211.662C112.153 210.495 113.109 209.281 113.973 207.998C114.16 207.741 114.51 207.671 114.766 207.835C115.023 208.021 115.093 208.371 114.93 208.628C114.043 209.935 113.063 211.195 112.036 212.385C111.896 212.549 111.733 212.619 111.569 212.619ZM48.1875 207.205C48.0008 207.205 47.8141 207.111 47.6974 206.924C46.8806 205.571 46.1338 204.171 45.4804 202.724C45.3404 202.444 45.4804 202.094 45.7605 201.954C46.0405 201.814 46.3905 201.954 46.5306 202.234C47.1606 203.634 47.8841 205.011 48.6775 206.318C48.8409 206.598 48.7475 206.948 48.4908 207.111C48.3975 207.181 48.2808 207.205 48.1875 207.205ZM117.66 203.191C117.59 203.191 117.497 203.167 117.427 203.144C117.147 203.004 117.007 202.677 117.147 202.374C117.777 200.974 118.337 199.527 118.827 198.08L118.85 198.033C118.943 197.73 119.27 197.567 119.574 197.66C119.877 197.753 120.04 198.08 119.947 198.383L119.924 198.43C119.434 199.947 118.85 201.44 118.197 202.864C118.08 203.074 117.87 203.191 117.66 203.191ZM43.7769 196.913C43.5202 196.913 43.2868 196.75 43.2168 196.493C42.7967 194.976 42.4934 193.389 42.26 191.849C42.2133 191.546 42.4234 191.242 42.7501 191.196C43.0535 191.149 43.3568 191.359 43.4035 191.686C43.6135 193.203 43.9402 194.72 44.337 196.213C44.4303 196.516 44.2436 196.843 43.9402 196.913C43.8702 196.89 43.8235 196.913 43.7769 196.913ZM120.834 192.386C120.81 192.386 120.787 192.386 120.74 192.386C120.437 192.339 120.204 192.059 120.25 191.732C120.46 190.216 120.6 188.675 120.647 187.135C120.647 186.808 120.927 186.575 121.23 186.575C121.557 186.575 121.791 186.855 121.791 187.159C121.744 188.745 121.627 190.332 121.394 191.896C121.37 192.176 121.114 192.386 120.834 192.386ZM42.4467 185.782C42.12 185.782 41.8633 185.502 41.8633 185.198C41.91 183.611 42.05 182.025 42.26 180.461C42.3067 180.158 42.5867 179.924 42.9134 179.971C43.2168 180.018 43.4502 180.298 43.4035 180.624C43.1701 182.141 43.0534 183.681 43.0067 185.222C43.0301 185.525 42.7734 185.782 42.4467 185.782ZM120.857 181.184C120.577 181.184 120.32 180.974 120.297 180.694C120.087 179.177 119.76 177.661 119.364 176.167C119.27 175.864 119.457 175.537 119.76 175.467C120.064 175.374 120.39 175.56 120.46 175.864C120.88 177.381 121.184 178.944 121.417 180.508C121.464 180.811 121.254 181.114 120.927 181.161C120.904 181.161 120.88 181.184 120.857 181.184ZM44.337 174.72C44.2903 174.72 44.2203 174.72 44.1503 174.697C43.8469 174.604 43.6835 174.277 43.7769 173.973V173.95C44.2669 172.457 44.827 170.963 45.4804 169.54C45.6204 169.26 45.9472 169.119 46.2505 169.259C46.5306 169.4 46.6706 169.726 46.5306 170.03C45.9005 171.406 45.3404 172.853 44.8737 174.3V174.324C44.8036 174.557 44.5937 174.72 44.337 174.72ZM117.683 170.426C117.473 170.426 117.263 170.31 117.17 170.1C116.54 168.699 115.816 167.323 115 166.016C114.836 165.736 114.93 165.386 115.186 165.222C115.466 165.059 115.816 165.152 115.98 165.409C116.797 166.762 117.543 168.163 118.197 169.61C118.337 169.89 118.197 170.24 117.917 170.38C117.847 170.403 117.777 170.426 117.683 170.426ZM49.2376 164.639C49.1209 164.639 49.0042 164.616 48.9109 164.546C48.6542 164.359 48.5842 164.009 48.7475 163.752C49.6343 162.445 50.6144 161.185 51.6412 159.972C51.8512 159.738 52.2013 159.715 52.458 159.925C52.6914 160.135 52.7147 160.485 52.5047 160.742C51.5012 161.909 50.5444 163.122 49.681 164.406C49.611 164.546 49.4243 164.639 49.2376 164.639ZM111.639 160.975C111.476 160.975 111.312 160.905 111.196 160.765C110.192 159.598 109.119 158.478 107.975 157.451C107.742 157.241 107.719 156.868 107.929 156.634C108.139 156.401 108.512 156.378 108.745 156.588C109.912 157.661 111.032 158.805 112.059 159.995C112.269 160.228 112.246 160.602 111.989 160.812C111.896 160.928 111.779 160.975 111.639 160.975ZM56.7986 156.354C56.6352 156.354 56.4719 156.284 56.3552 156.144C56.1452 155.911 56.1918 155.538 56.4252 155.328C57.6387 154.324 58.9455 153.391 60.2757 152.527C60.5324 152.364 60.9058 152.434 61.0692 152.691C61.2325 152.947 61.1625 153.321 60.9058 153.484C59.6223 154.301 58.3622 155.234 57.172 156.191C57.0553 156.308 56.9153 156.354 56.7986 156.354ZM103.168 153.624C103.051 153.624 102.958 153.601 102.865 153.531C101.581 152.691 100.228 151.944 98.8508 151.267C98.5708 151.127 98.4541 150.777 98.5941 150.497C98.7342 150.217 99.0842 150.1 99.3642 150.24C100.788 150.94 102.188 151.711 103.518 152.574C103.775 152.737 103.868 153.111 103.681 153.367C103.541 153.531 103.355 153.624 103.168 153.624ZM66.3899 150.52C66.1565 150.52 65.9465 150.38 65.8531 150.17C65.7365 149.89 65.8531 149.54 66.1565 149.424C67.6034 148.793 69.1202 148.257 70.6371 147.813C70.9405 147.72 71.2672 147.907 71.3605 148.21C71.4538 148.513 71.2672 148.84 70.9638 148.933C69.4936 149.377 68.0234 149.89 66.6232 150.497C66.5299 150.52 66.4599 150.52 66.3899 150.52ZM92.97 148.98C92.9234 148.98 92.8534 148.98 92.8067 148.957C91.3365 148.513 89.8196 148.163 88.3028 147.907C87.9994 147.86 87.7894 147.557 87.836 147.253C87.8827 146.95 88.1861 146.74 88.4895 146.787C90.053 147.043 91.5932 147.417 93.1101 147.86C93.4135 147.953 93.5768 148.28 93.5068 148.583C93.4601 148.817 93.2267 148.98 92.97 148.98ZM77.1946 147.627C76.9146 147.627 76.6579 147.417 76.6346 147.113C76.5879 146.81 76.8212 146.506 77.1479 146.483C78.7115 146.296 80.275 146.203 81.8386 146.203H81.8852C82.212 146.203 82.4687 146.46 82.4687 146.787C82.4687 147.113 82.212 147.37 81.8852 147.37H81.8386C80.3217 147.37 78.7815 147.463 77.288 147.65C77.2413 147.627 77.2179 147.627 77.1946 147.627Z" fill="#151E2D"/>
<path d="M259.809 277.353C259.389 277.353 259.039 277.027 259.039 276.607C259.039 276.187 259.366 275.836 259.786 275.836C261.373 275.813 262.983 275.743 264.57 275.65C264.99 275.626 265.363 275.93 265.386 276.35C265.41 276.77 265.106 277.143 264.686 277.167C263.076 277.283 261.443 277.33 259.809 277.353ZM253.065 277.167C253.041 277.167 253.041 277.167 253.018 277.167C251.408 277.05 249.774 276.91 248.187 276.7C247.767 276.653 247.464 276.257 247.511 275.836C247.557 275.416 247.954 275.113 248.374 275.16C249.938 275.346 251.548 275.51 253.135 275.603C253.555 275.626 253.882 276 253.858 276.42C253.812 276.863 253.461 277.167 253.065 277.167ZM271.337 276.443C270.964 276.443 270.637 276.163 270.59 275.79C270.52 275.37 270.824 274.973 271.244 274.926C272.807 274.693 274.394 274.413 275.958 274.086C276.378 273.993 276.775 274.273 276.868 274.67C276.961 275.09 276.681 275.486 276.285 275.58C274.698 275.906 273.087 276.187 271.501 276.42C271.407 276.443 271.361 276.443 271.337 276.443ZM241.607 275.626C241.56 275.626 241.513 275.626 241.443 275.603C239.856 275.276 238.269 274.903 236.706 274.483C236.309 274.366 236.053 273.946 236.169 273.549C236.286 273.153 236.706 272.896 237.103 273.013C238.643 273.409 240.206 273.783 241.747 274.11C242.167 274.203 242.423 274.6 242.33 275.02C242.283 275.37 241.957 275.626 241.607 275.626ZM282.632 273.97C282.305 273.97 282.002 273.76 281.909 273.409C281.792 273.013 282.025 272.569 282.422 272.453C283.939 272.009 285.479 271.519 286.973 270.982C287.369 270.842 287.813 271.053 287.953 271.449C288.093 271.846 287.883 272.289 287.486 272.429C285.969 272.966 284.406 273.479 282.865 273.923C282.772 273.97 282.702 273.97 282.632 273.97ZM230.475 272.523C230.382 272.523 230.312 272.499 230.218 272.476C228.702 271.939 227.161 271.333 225.668 270.726C225.271 270.562 225.084 270.119 225.248 269.722C225.411 269.326 225.855 269.139 226.251 269.302C227.721 269.909 229.215 270.492 230.708 271.029C231.105 271.169 231.315 271.613 231.175 272.009C231.082 272.313 230.778 272.523 230.475 272.523ZM293.46 269.979C293.157 269.979 292.9 269.816 292.76 269.536C292.597 269.139 292.76 268.696 293.133 268.532C294.58 267.879 296.027 267.179 297.427 266.455C297.801 266.269 298.267 266.409 298.454 266.782C298.641 267.155 298.501 267.622 298.127 267.809C296.704 268.556 295.234 269.256 293.763 269.932C293.67 269.956 293.577 269.979 293.46 269.979ZM219.857 267.902C219.74 267.902 219.624 267.879 219.507 267.809C218.083 267.062 216.637 266.269 215.26 265.452C214.886 265.242 214.77 264.775 215.003 264.402C215.213 264.028 215.68 263.912 216.053 264.145C217.407 264.962 218.83 265.732 220.23 266.455C220.604 266.642 220.744 267.109 220.557 267.482C220.394 267.762 220.137 267.902 219.857 267.902ZM303.658 264.542C303.401 264.542 303.145 264.425 303.005 264.192C302.771 263.842 302.888 263.351 303.238 263.141C304.592 262.301 305.922 261.415 307.205 260.504C307.555 260.271 308.022 260.341 308.279 260.691C308.512 261.041 308.442 261.508 308.092 261.765C306.785 262.698 305.408 263.608 304.055 264.448C303.938 264.495 303.798 264.542 303.658 264.542ZM209.986 261.881C209.822 261.881 209.682 261.835 209.542 261.741C208.212 260.808 206.905 259.828 205.645 258.824C205.318 258.568 205.248 258.077 205.528 257.751C205.785 257.424 206.275 257.354 206.602 257.634C207.839 258.614 209.122 259.594 210.429 260.504C210.779 260.738 210.849 261.228 210.616 261.578C210.452 261.765 210.219 261.881 209.986 261.881ZM313.016 257.751C312.806 257.751 312.573 257.657 312.433 257.471C312.153 257.144 312.199 256.654 312.526 256.397C313.739 255.37 314.953 254.32 316.096 253.247C316.4 252.967 316.89 252.967 317.17 253.293C317.45 253.597 317.45 254.087 317.123 254.367C315.933 255.464 314.72 256.561 313.483 257.587C313.366 257.704 313.179 257.751 313.016 257.751ZM201.001 254.6C200.814 254.6 200.628 254.53 200.488 254.39C199.298 253.293 198.154 252.15 197.034 250.983C196.731 250.68 196.754 250.19 197.057 249.91C197.361 249.606 197.851 249.63 198.131 249.933C199.228 251.077 200.371 252.22 201.538 253.293C201.841 253.574 201.865 254.064 201.585 254.367C201.421 254.507 201.211 254.6 201.001 254.6ZM321.37 249.77C321.184 249.77 320.997 249.7 320.857 249.56C320.554 249.28 320.53 248.79 320.81 248.486C321.884 247.319 322.934 246.106 323.937 244.869C324.194 244.542 324.684 244.496 325.011 244.752C325.338 245.009 325.384 245.499 325.128 245.826C324.101 247.086 323.027 248.323 321.954 249.513C321.791 249.676 321.58 249.77 321.37 249.77ZM193.114 246.153C192.88 246.153 192.67 246.059 192.53 245.873C191.503 244.612 190.523 243.329 189.566 242.022C189.31 241.672 189.403 241.205 189.73 240.949C190.08 240.692 190.546 240.785 190.803 241.112C191.737 242.395 192.717 243.679 193.72 244.892C193.977 245.219 193.93 245.709 193.604 245.966C193.44 246.083 193.277 246.153 193.114 246.153ZM328.581 240.715C328.441 240.715 328.278 240.668 328.138 240.575C327.788 240.342 327.695 239.852 327.951 239.502C328.861 238.195 329.725 236.841 330.565 235.488C330.775 235.138 331.265 235.021 331.615 235.231C331.965 235.441 332.082 235.931 331.872 236.281C331.032 237.658 330.145 239.035 329.212 240.365C329.048 240.598 328.815 240.715 328.581 240.715ZM186.439 236.701C186.183 236.701 185.926 236.561 185.786 236.328C184.946 234.951 184.129 233.528 183.382 232.104C183.172 231.731 183.312 231.264 183.686 231.077C184.059 230.867 184.526 231.007 184.712 231.381C185.459 232.781 186.253 234.181 187.069 235.511C187.279 235.861 187.186 236.351 186.813 236.561C186.696 236.678 186.579 236.701 186.439 236.701ZM334.486 230.774C334.369 230.774 334.252 230.751 334.135 230.681C333.762 230.494 333.599 230.027 333.809 229.654C334.532 228.23 335.209 226.783 335.839 225.313C336.002 224.916 336.469 224.753 336.843 224.916C337.239 225.08 337.403 225.546 337.239 225.92C336.586 227.39 335.909 228.884 335.162 230.33C335.022 230.61 334.766 230.774 334.486 230.774ZM181.095 226.457C180.792 226.457 180.512 226.293 180.395 225.99C179.742 224.52 179.135 223.003 178.575 221.486C178.435 221.089 178.622 220.646 179.018 220.506C179.415 220.366 179.858 220.552 179.998 220.949C180.535 222.443 181.142 223.913 181.772 225.383C181.935 225.78 181.772 226.223 181.375 226.387C181.305 226.433 181.212 226.457 181.095 226.457ZM338.966 220.109C338.873 220.109 338.803 220.086 338.709 220.062C338.313 219.922 338.103 219.479 338.243 219.082C338.756 217.589 339.223 216.049 339.666 214.532C339.783 214.135 340.203 213.878 340.6 213.995C340.996 214.112 341.253 214.532 341.136 214.928C340.693 216.492 340.226 218.055 339.69 219.572C339.596 219.899 339.293 220.109 338.966 220.109ZM177.221 215.582C176.895 215.582 176.591 215.372 176.475 215.022C176.031 213.458 175.635 211.871 175.284 210.308C175.191 209.888 175.448 209.491 175.868 209.398C176.288 209.304 176.685 209.561 176.778 209.981C177.128 211.521 177.501 213.085 177.945 214.625C178.062 215.022 177.828 215.465 177.408 215.558C177.361 215.582 177.291 215.582 177.221 215.582ZM341.953 208.931C341.906 208.931 341.86 208.931 341.813 208.908C341.393 208.838 341.136 208.418 341.206 208.021C341.51 206.457 341.766 204.87 341.977 203.307C342.023 202.887 342.42 202.583 342.84 202.653C343.26 202.7 343.563 203.097 343.493 203.517C343.283 205.127 343.003 206.737 342.7 208.324C342.63 208.674 342.303 208.931 341.953 208.931ZM174.864 204.264C174.491 204.264 174.164 203.984 174.118 203.61C173.908 202.023 173.721 200.39 173.604 198.78C173.581 198.36 173.884 197.986 174.304 197.963C174.724 197.939 175.098 198.243 175.121 198.663C175.238 200.25 175.424 201.837 175.635 203.4C175.681 203.82 175.401 204.194 174.981 204.264C174.934 204.264 174.911 204.264 174.864 204.264ZM343.377 197.473C343.353 197.473 343.353 197.473 343.33 197.473C342.91 197.449 342.583 197.099 342.607 196.656C342.7 195.069 342.747 193.459 342.747 191.872V191.709C342.747 191.289 343.097 190.939 343.517 190.939C343.937 190.939 344.287 191.289 344.287 191.709V191.872C344.287 193.482 344.24 195.116 344.147 196.726C344.123 197.146 343.797 197.473 343.377 197.473ZM174.094 192.735C173.674 192.735 173.324 192.385 173.324 191.965V191.872C173.324 190.285 173.371 188.675 173.464 187.088C173.488 186.668 173.838 186.341 174.281 186.365C174.701 186.388 175.028 186.738 175.004 187.181C174.911 188.745 174.864 190.308 174.864 191.872V191.965C174.841 192.385 174.514 192.735 174.094 192.735ZM343.237 185.735C342.84 185.735 342.513 185.431 342.467 185.034C342.35 183.448 342.163 181.861 341.953 180.297C341.906 179.877 342.187 179.504 342.607 179.434C343.027 179.387 343.4 179.667 343.47 180.087C343.68 181.674 343.867 183.308 344.007 184.918C344.03 185.338 343.727 185.711 343.307 185.735C343.283 185.735 343.26 185.735 343.237 185.735ZM174.864 181.207C174.841 181.207 174.794 181.207 174.771 181.207C174.351 181.161 174.048 180.764 174.118 180.344C174.328 178.734 174.608 177.123 174.911 175.537C174.981 175.116 175.401 174.86 175.798 174.93C176.218 175 176.475 175.42 176.405 175.817C176.101 177.38 175.845 178.967 175.635 180.531C175.564 180.927 175.238 181.207 174.864 181.207ZM341.533 174.3C341.183 174.3 340.856 174.066 340.786 173.693C340.436 172.153 340.063 170.589 339.62 169.049C339.503 168.652 339.736 168.209 340.156 168.116C340.553 167.999 340.996 168.232 341.09 168.652C341.533 170.216 341.93 171.803 342.28 173.366C342.373 173.786 342.117 174.183 341.697 174.276C341.626 174.3 341.58 174.3 341.533 174.3ZM177.175 169.866C177.105 169.866 177.035 169.866 176.965 169.842C176.568 169.726 176.311 169.306 176.428 168.909C176.871 167.345 177.338 165.782 177.875 164.265C178.015 163.868 178.435 163.658 178.855 163.798C179.252 163.938 179.462 164.358 179.322 164.778C178.808 166.272 178.342 167.812 177.898 169.352C177.828 169.656 177.525 169.866 177.175 169.866ZM338.266 163.215C337.963 163.215 337.659 163.028 337.543 162.725C336.983 161.231 336.399 159.761 335.769 158.314C335.606 157.918 335.769 157.474 336.166 157.311C336.562 157.147 337.006 157.311 337.169 157.708C337.823 159.178 338.429 160.695 338.989 162.211C339.129 162.608 338.943 163.052 338.546 163.192C338.453 163.192 338.359 163.215 338.266 163.215ZM181.049 158.968C180.955 158.968 180.839 158.944 180.745 158.898C180.348 158.734 180.185 158.268 180.348 157.894C181.002 156.401 181.679 154.93 182.402 153.484C182.589 153.11 183.056 152.947 183.429 153.134C183.802 153.32 183.966 153.787 183.779 154.16C183.056 155.584 182.379 157.031 181.749 158.501C181.609 158.804 181.329 158.968 181.049 158.968ZM333.529 152.69C333.249 152.69 332.992 152.55 332.852 152.293C332.105 150.893 331.312 149.516 330.472 148.163C330.262 147.813 330.355 147.323 330.728 147.113C331.078 146.903 331.568 146.996 331.779 147.369C332.619 148.746 333.435 150.17 334.205 151.593C334.416 151.967 334.275 152.433 333.902 152.62C333.762 152.667 333.645 152.69 333.529 152.69ZM186.369 148.7C186.229 148.7 186.089 148.653 185.973 148.583C185.623 148.373 185.506 147.883 185.716 147.533C186.556 146.156 187.443 144.779 188.353 143.449C188.586 143.099 189.076 143.006 189.426 143.262C189.776 143.496 189.87 143.986 189.613 144.336C188.703 145.643 187.839 146.996 187.023 148.35C186.883 148.56 186.626 148.7 186.369 148.7ZM327.391 142.912C327.158 142.912 326.925 142.796 326.761 142.586C325.828 141.302 324.848 140.042 323.844 138.805C323.587 138.478 323.634 137.988 323.961 137.732C324.288 137.475 324.778 137.521 325.034 137.848C326.061 139.108 327.065 140.392 327.998 141.699C328.255 142.049 328.161 142.515 327.835 142.772C327.695 142.866 327.531 142.912 327.391 142.912ZM193.02 139.248C192.857 139.248 192.67 139.202 192.53 139.085C192.203 138.828 192.157 138.338 192.413 138.012C193.44 136.751 194.49 135.515 195.587 134.324C195.867 134.021 196.357 133.998 196.661 134.278C196.964 134.558 196.987 135.048 196.707 135.351C195.634 136.518 194.584 137.732 193.58 138.968C193.464 139.155 193.253 139.248 193.02 139.248ZM319.97 134.044C319.76 134.044 319.574 133.974 319.41 133.811C318.313 132.668 317.17 131.547 316.003 130.451C315.7 130.171 315.676 129.68 315.956 129.377C316.236 129.074 316.727 129.05 317.03 129.33C318.22 130.427 319.387 131.571 320.484 132.738C320.787 133.041 320.764 133.531 320.46 133.811C320.344 133.974 320.157 134.044 319.97 134.044ZM200.908 130.801C200.698 130.801 200.511 130.731 200.348 130.567C200.068 130.264 200.068 129.774 200.394 129.494C201.561 128.397 202.798 127.3 204.035 126.273C204.362 125.993 204.852 126.04 205.108 126.367C205.388 126.693 205.342 127.183 205.015 127.44C203.802 128.467 202.588 129.517 201.445 130.614C201.305 130.731 201.095 130.801 200.908 130.801ZM311.429 126.25C311.266 126.25 311.102 126.203 310.962 126.087C309.726 125.107 308.442 124.126 307.135 123.216C306.785 122.983 306.715 122.493 306.949 122.143C307.182 121.793 307.672 121.723 308.022 121.956C309.352 122.89 310.659 123.87 311.919 124.873C312.246 125.13 312.316 125.62 312.036 125.947C311.873 126.157 311.639 126.25 311.429 126.25ZM209.869 123.473C209.636 123.473 209.402 123.356 209.239 123.146C209.006 122.796 209.076 122.329 209.426 122.073C210.732 121.139 212.109 120.229 213.463 119.366C213.813 119.132 214.303 119.249 214.513 119.599C214.746 119.949 214.63 120.439 214.28 120.649C212.949 121.489 211.596 122.376 210.312 123.286C210.172 123.426 210.032 123.473 209.869 123.473ZM301.885 119.692C301.745 119.692 301.628 119.669 301.488 119.576C300.111 118.759 298.711 117.989 297.311 117.265C296.937 117.079 296.797 116.612 296.984 116.239C297.171 115.865 297.637 115.725 298.011 115.912C299.434 116.659 300.881 117.452 302.281 118.269C302.655 118.479 302.771 118.946 302.561 119.319C302.398 119.552 302.141 119.692 301.885 119.692ZM219.74 117.452C219.46 117.452 219.204 117.312 219.064 117.032C218.877 116.659 219.017 116.192 219.39 116.005C220.814 115.259 222.284 114.558 223.754 113.882C224.151 113.718 224.594 113.882 224.758 114.255C224.921 114.652 224.758 115.095 224.384 115.259C222.937 115.912 221.491 116.612 220.09 117.335C219.974 117.429 219.857 117.452 219.74 117.452ZM291.546 114.488C291.453 114.488 291.337 114.465 291.243 114.418C289.773 113.812 288.279 113.228 286.786 112.692C286.389 112.552 286.179 112.108 286.319 111.711C286.459 111.315 286.903 111.105 287.299 111.245C288.816 111.781 290.356 112.365 291.85 112.995C292.247 113.158 292.433 113.602 292.27 113.998C292.13 114.325 291.85 114.488 291.546 114.488ZM230.312 112.832C230.008 112.832 229.705 112.645 229.588 112.318C229.448 111.921 229.658 111.478 230.055 111.338C231.572 110.801 233.135 110.288 234.676 109.845C235.072 109.728 235.516 109.961 235.632 110.358C235.749 110.755 235.516 111.198 235.119 111.315C233.602 111.758 232.062 112.248 230.568 112.785C230.498 112.832 230.405 112.832 230.312 112.832ZM280.602 110.755C280.532 110.755 280.462 110.755 280.415 110.731C278.875 110.335 277.311 109.961 275.771 109.634C275.351 109.541 275.094 109.144 275.164 108.724C275.258 108.304 275.654 108.048 276.074 108.118C277.661 108.444 279.248 108.818 280.812 109.238C281.232 109.354 281.465 109.775 281.348 110.171C281.255 110.545 280.952 110.755 280.602 110.755ZM241.443 109.704C241.093 109.704 240.766 109.448 240.696 109.098C240.603 108.678 240.883 108.281 241.28 108.188C242.867 107.861 244.477 107.581 246.064 107.324C246.484 107.254 246.881 107.558 246.927 107.978C246.997 108.398 246.694 108.794 246.274 108.841C244.71 109.074 243.123 109.354 241.583 109.681C241.56 109.704 241.49 109.704 241.443 109.704ZM269.26 108.561C269.237 108.561 269.19 108.561 269.167 108.561C267.603 108.374 265.993 108.211 264.406 108.118C263.986 108.094 263.659 107.721 263.683 107.301C263.706 106.881 264.08 106.554 264.5 106.577C266.11 106.694 267.743 106.834 269.33 107.044C269.75 107.091 270.054 107.488 270.007 107.908C269.96 108.281 269.634 108.561 269.26 108.561ZM252.901 108.141C252.505 108.141 252.178 107.838 252.131 107.418C252.108 106.997 252.411 106.624 252.831 106.601C254.442 106.484 256.075 106.414 257.685 106.414C258.105 106.414 258.455 106.741 258.455 107.161C258.455 107.581 258.129 107.931 257.709 107.931C256.122 107.954 254.512 108.024 252.925 108.118C252.925 108.141 252.925 108.141 252.901 108.141Z" fill="url(#paint0_linear_6539_210748)"/>
<path d="M17.6644 75.5391H20.8148C21.2582 75.5391 21.6316 75.9124 21.6316 76.3558C21.6316 76.7992 21.2582 77.1726 20.8148 77.1726H17.6644C17.221 77.1726 16.8477 76.7992 16.8477 76.3558C16.8477 76.1225 16.941 75.9358 17.081 75.7958C17.221 75.6324 17.4311 75.5391 17.6644 75.5391Z" fill="#2C3872"/>
<path d="M29.4013 76.3363C29.4013 76.5697 29.3079 76.7797 29.1679 76.9197C29.0279 77.0597 28.8178 77.1531 28.6078 77.1531H25.4574C25.014 77.1531 24.6406 76.7797 24.6406 76.3363C24.6406 75.8929 25.014 75.5195 25.4574 75.5195H28.5845C29.0046 75.5429 29.378 75.8929 29.4013 76.3363Z" fill="#2C3872"/>
<path d="M23.9187 70.8987V74.0258C23.9187 74.4692 23.5453 74.8426 23.1019 74.8426C22.6585 74.8426 22.2852 74.4692 22.2852 74.0258V70.8754C22.2852 70.432 22.6585 70.0586 23.1019 70.0586C23.3353 70.0586 23.522 70.1519 23.6853 70.292C23.8487 70.4553 23.9187 70.6653 23.9187 70.8987Z" fill="#2C3872"/>
<path d="M23.1226 77.875C23.566 77.875 23.9394 78.2484 23.9394 78.6918V81.8422C23.9394 82.2856 23.566 82.659 23.1226 82.659C22.8892 82.659 22.7025 82.5656 22.5625 82.4256C22.4225 82.2856 22.3292 82.0755 22.3292 81.8655V78.7151C22.3058 78.225 22.6792 77.875 23.1226 77.875Z" fill="#2C3872"/>
<path d="M53.1141 43.7812C51.2239 43.7812 49.707 45.2981 49.707 47.1884C49.707 49.0786 51.2239 50.5955 53.1141 50.5955C55.0044 50.5955 56.5213 49.0786 56.5213 47.1884C56.5213 45.2981 55.0044 43.7812 53.1141 43.7812ZM53.1141 49.0786C52.064 49.0786 51.2239 48.2385 51.2239 47.1884C51.2239 46.1382 52.064 45.2981 53.1141 45.2981C54.1643 45.2981 55.0044 46.1382 55.0044 47.1884C55.0044 48.2152 54.1643 49.0786 53.1141 49.0786Z" fill="#2C3872"/>
<path d="M48.1415 224.074C46.2512 224.074 44.7344 225.591 44.7344 227.481C44.7344 229.372 46.2512 230.888 48.1415 230.888C50.0317 230.888 51.5486 229.372 51.5486 227.481C51.5486 225.591 50.0084 224.074 48.1415 224.074ZM48.1415 229.372C47.0913 229.372 46.2512 228.531 46.2512 227.481C46.2512 226.431 47.0913 225.591 48.1415 225.591C49.1916 225.591 50.0317 226.431 50.0317 227.481C50.0317 228.531 49.1683 229.372 48.1415 229.372Z" fill="#2C3872"/>
<path d="M63.9862 193.852H65.8998C66.1798 193.852 66.3898 194.062 66.3898 194.342C66.3898 194.622 66.1798 194.832 65.8998 194.832H63.9862C63.7061 194.832 63.4961 194.622 63.4961 194.342C63.4961 194.202 63.5428 194.085 63.6361 193.992C63.7295 193.922 63.8695 193.852 63.9862 193.852Z" fill="#2C3872"/>
<path d="M71.1515 194.342C71.1515 194.482 71.1048 194.598 71.0115 194.692C70.9181 194.785 70.8014 194.832 70.6614 194.832H68.7478C68.4678 194.832 68.2578 194.622 68.2578 194.342C68.2578 194.062 68.4678 193.852 68.7478 193.852H70.6614C70.9181 193.852 71.1515 194.085 71.1515 194.342Z" fill="#2C3872"/>
<path d="M67.8121 191.029V192.943C67.8121 193.223 67.6022 193.433 67.3221 193.433C67.0421 193.433 66.832 193.223 66.832 192.943V191.029C66.832 190.749 67.0421 190.539 67.3221 190.539C67.4621 190.539 67.5788 190.586 67.6722 190.679C67.7655 190.772 67.8121 190.889 67.8121 191.029Z" fill="#2C3872"/>
<path d="M67.3221 195.277C67.6022 195.277 67.8121 195.487 67.8121 195.767V197.681C67.8121 197.961 67.6022 198.171 67.3221 198.171C67.1821 198.171 67.0654 198.124 66.9721 198.031C66.8787 197.938 66.832 197.821 66.832 197.681V195.767C66.832 195.511 67.0421 195.277 67.3221 195.277Z" fill="#2C3872"/>
<path d="M287.341 134.93C285.45 134.93 283.934 136.447 283.934 138.337C283.934 140.227 285.45 141.744 287.341 141.744C289.231 141.744 290.748 140.227 290.748 138.337C290.748 136.447 289.231 134.93 287.341 134.93ZM287.341 140.227C286.291 140.227 285.45 139.387 285.45 138.337C285.45 137.287 286.291 136.447 287.341 136.447C288.391 136.447 289.231 137.287 289.231 138.337C289.231 139.387 288.391 140.227 287.341 140.227Z" fill="#2C3872"/>
<path d="M301.298 161.629H303.655C303.982 161.629 304.262 161.909 304.262 162.236C304.262 162.562 303.982 162.842 303.655 162.842H301.298C300.971 162.842 300.691 162.562 300.691 162.236C300.691 162.072 300.761 161.909 300.878 161.816C300.971 161.699 301.135 161.629 301.298 161.629Z" fill="#2C3872"/>
<path d="M310.121 162.212C310.121 162.376 310.051 162.539 309.935 162.656C309.818 162.772 309.678 162.842 309.514 162.842H307.158C306.831 162.842 306.551 162.562 306.551 162.236C306.551 161.909 306.831 161.629 307.158 161.629H309.514C309.841 161.629 310.121 161.886 310.121 162.212Z" fill="#2C3872"/>
<path d="M306.014 158.126V160.483C306.014 160.81 305.734 161.09 305.408 161.09C305.081 161.09 304.801 160.81 304.801 160.483V158.126C304.801 157.8 305.081 157.52 305.408 157.52C305.571 157.52 305.734 157.59 305.828 157.706C305.921 157.823 306.014 157.963 306.014 158.126Z" fill="#2C3872"/>
<path d="M305.408 163.379C305.734 163.379 306.014 163.659 306.014 163.986V166.343C306.014 166.669 305.734 166.949 305.408 166.949C305.244 166.949 305.081 166.879 304.987 166.763C304.871 166.646 304.801 166.506 304.801 166.343V163.986C304.801 163.636 305.081 163.379 305.408 163.379Z" fill="#2C3872"/>
<path d="M277.541 298.078H279.898C280.224 298.078 280.504 298.358 280.504 298.685C280.504 299.012 280.224 299.292 279.898 299.292H277.541C277.214 299.292 276.934 299.012 276.934 298.685C276.934 298.522 277.004 298.358 277.121 298.265C277.214 298.148 277.354 298.078 277.541 298.078Z" fill="#2C3872"/>
<path d="M286.364 298.683C286.364 298.846 286.294 299.009 286.177 299.126C286.06 299.243 285.92 299.313 285.757 299.313H283.4C283.073 299.313 282.793 299.033 282.793 298.706C282.793 298.379 283.073 298.099 283.4 298.099H285.757C286.084 298.076 286.364 298.332 286.364 298.683Z" fill="#2C3872"/>
<path d="M282.257 294.575V296.932C282.257 297.259 281.977 297.539 281.65 297.539C281.323 297.539 281.043 297.259 281.043 296.932V294.575C281.043 294.249 281.323 293.969 281.65 293.969C281.813 293.969 281.977 294.039 282.07 294.155C282.163 294.272 282.257 294.412 282.257 294.575Z" fill="#2C3872"/>
<path d="M281.65 299.828C281.977 299.828 282.257 300.108 282.257 300.435V302.792C282.257 303.119 281.977 303.399 281.65 303.399C281.487 303.399 281.323 303.329 281.23 303.212C281.113 303.095 281.043 302.955 281.043 302.792V300.435C281.043 300.085 281.3 299.828 281.65 299.828Z" fill="#2C3872"/>
<path d="M241.856 0C239.966 0 238.449 1.51688 238.449 3.40713C238.449 5.29738 239.966 6.81424 241.856 6.81424C243.747 6.81424 245.263 5.29738 245.263 3.40713C245.24 1.54021 243.723 0 241.856 0ZM241.856 5.29737C240.806 5.29737 239.966 4.45727 239.966 3.40713C239.966 2.35699 240.806 1.51687 241.856 1.51687C242.906 1.51687 243.747 2.35699 243.747 3.40713C243.747 4.45727 242.883 5.29737 241.856 5.29737Z" fill="#2C3872"/>
<path d="M278.657 37.2969H281.014C281.341 37.2969 281.621 37.5769 281.621 37.9036C281.621 38.2303 281.341 38.5104 281.014 38.5104H278.657C278.331 38.5104 278.051 38.2303 278.051 37.9036C278.051 37.7403 278.121 37.5769 278.237 37.4836C278.331 37.3669 278.494 37.2969 278.657 37.2969Z" fill="#2C3872"/>
<path d="M287.481 37.9012C287.481 38.0645 287.411 38.2279 287.294 38.3446C287.177 38.4612 287.037 38.5313 286.874 38.5313H284.517C284.19 38.5313 283.91 38.2512 283.91 37.9245C283.91 37.5978 284.19 37.3178 284.517 37.3178H286.874C287.201 37.2944 287.481 37.5745 287.481 37.9012Z" fill="#2C3872"/>
<path d="M283.374 33.7942V36.1512C283.374 36.4779 283.094 36.758 282.767 36.758C282.44 36.758 282.16 36.4779 282.16 36.1512V33.7942C282.16 33.4675 282.44 33.1875 282.767 33.1875C282.93 33.1875 283.094 33.2575 283.187 33.3742C283.304 33.4909 283.374 33.6309 283.374 33.7942Z" fill="#2C3872"/>
<path d="M282.767 39.0469C283.094 39.0469 283.374 39.3269 283.374 39.6536V42.0106C283.374 42.3373 283.094 42.6174 282.767 42.6174C282.604 42.6174 282.44 42.5473 282.347 42.4307C282.23 42.314 282.16 42.174 282.16 42.0106V39.6536C282.16 39.3269 282.44 39.0469 282.767 39.0469Z" fill="#2C3872"/>
<path d="M322.045 146.201C320.458 146.201 318.848 146.061 317.261 145.781C316.958 145.734 316.748 145.43 316.794 145.127C316.841 144.824 317.144 144.614 317.448 144.66C318.965 144.917 320.505 145.057 322.022 145.057H322.092C322.419 145.057 322.675 145.314 322.675 145.641C322.675 145.967 322.419 146.224 322.092 146.224L322.045 146.201ZM328.743 145.36C328.486 145.36 328.253 145.197 328.183 144.917C328.113 144.614 328.299 144.287 328.603 144.217C330.12 143.844 331.59 143.307 333.013 142.677C333.293 142.537 333.643 142.677 333.783 142.957C333.923 143.237 333.783 143.587 333.503 143.727C332.01 144.404 330.47 144.94 328.906 145.337C328.836 145.36 328.789 145.36 328.743 145.36ZM310.984 143.867C310.914 143.867 310.82 143.844 310.75 143.82C309.257 143.167 307.833 142.373 306.48 141.463C306.223 141.277 306.153 140.927 306.316 140.67C306.503 140.413 306.853 140.343 307.11 140.507C308.393 141.37 309.77 142.117 311.217 142.747C311.497 142.863 311.637 143.214 311.52 143.494C311.404 143.727 311.194 143.867 310.984 143.867ZM338.987 140.32C338.824 140.32 338.637 140.25 338.544 140.11C338.357 139.853 338.381 139.503 338.637 139.293C339.874 138.336 341.018 137.263 342.044 136.096C342.255 135.863 342.628 135.839 342.861 136.049C343.095 136.259 343.118 136.633 342.908 136.866C341.834 138.08 340.621 139.2 339.337 140.203C339.221 140.296 339.104 140.32 338.987 140.32ZM301.742 137.193C301.579 137.193 301.439 137.123 301.322 137.006C300.226 135.793 299.245 134.486 298.382 133.109C298.219 132.852 298.289 132.479 298.569 132.315C298.825 132.152 299.199 132.222 299.362 132.502C300.202 133.832 301.136 135.069 302.186 136.236C302.396 136.469 302.373 136.843 302.139 137.053C301.999 137.146 301.859 137.193 301.742 137.193ZM346.268 131.569C346.175 131.569 346.082 131.545 346.012 131.499C345.732 131.359 345.615 131.009 345.778 130.729C346.502 129.352 347.108 127.905 347.599 126.411V126.365C347.692 126.061 348.019 125.898 348.322 125.991C348.625 126.085 348.789 126.411 348.695 126.715L348.672 126.761C348.182 128.325 347.529 129.818 346.782 131.265C346.688 131.475 346.478 131.569 346.268 131.569ZM296.002 127.345C295.768 127.345 295.535 127.181 295.465 126.948C294.952 125.408 294.578 123.798 294.345 122.211C294.298 121.907 294.508 121.604 294.835 121.557C295.138 121.511 295.442 121.721 295.488 122.047C295.722 123.588 296.072 125.128 296.562 126.598C296.655 126.901 296.492 127.228 296.188 127.321C296.118 127.321 296.072 127.345 296.002 127.345ZM349.395 120.577C349.372 120.577 349.372 120.577 349.349 120.577C349.022 120.554 348.789 120.274 348.812 119.97C348.859 119.387 348.859 118.804 348.859 118.197C348.859 117.217 348.812 116.26 348.695 115.28C348.672 114.976 348.882 114.673 349.209 114.65C349.512 114.603 349.815 114.836 349.839 115.163C349.955 116.167 350.002 117.193 350.002 118.197C350.002 118.804 349.979 119.434 349.932 120.04C349.956 120.344 349.699 120.577 349.395 120.577ZM294.765 116.027C294.742 116.027 294.718 116.027 294.695 116.027C294.368 116.003 294.158 115.723 294.181 115.397C294.345 113.786 294.648 112.176 295.092 110.613C295.185 110.309 295.488 110.122 295.792 110.216C296.095 110.309 296.282 110.613 296.188 110.916C295.768 112.409 295.465 113.973 295.302 115.513C295.302 115.793 295.068 116.027 294.765 116.027ZM347.762 109.306C347.529 109.306 347.318 109.166 347.225 108.932C346.688 107.462 346.012 106.039 345.242 104.708C345.078 104.428 345.172 104.078 345.452 103.915C345.732 103.752 346.082 103.845 346.245 104.125C347.062 105.525 347.762 107.019 348.322 108.536C348.439 108.839 348.275 109.166 347.972 109.282C347.879 109.282 347.809 109.306 347.762 109.306ZM298.242 105.175C298.149 105.175 298.055 105.152 297.962 105.105C297.682 104.942 297.589 104.592 297.752 104.312C298.569 102.912 299.502 101.558 300.529 100.298C300.739 100.064 301.089 100.018 301.346 100.228C301.579 100.438 301.626 100.788 301.416 101.045C300.412 102.235 299.526 103.542 298.755 104.895C298.639 105.059 298.452 105.175 298.242 105.175ZM341.671 99.6678C341.531 99.6678 341.368 99.6211 341.251 99.5044C340.154 98.3843 338.964 97.3575 337.704 96.4473C337.447 96.2607 337.377 95.9106 337.564 95.6539C337.751 95.3972 338.101 95.3272 338.357 95.5139C339.664 96.4707 340.924 97.5442 342.044 98.711C342.255 98.9444 342.255 99.2944 342.044 99.5278C341.974 99.5978 341.811 99.6678 341.671 99.6678ZM305.85 96.6807C305.663 96.6807 305.5 96.6107 305.383 96.4473C305.196 96.1906 305.243 95.8406 305.5 95.6539C306.806 94.6971 308.207 93.857 309.677 93.1336C309.957 92.9936 310.307 93.1102 310.447 93.3903C310.587 93.6703 310.47 94.0204 310.19 94.1604C308.79 94.8605 307.437 95.6539 306.2 96.5874C306.083 96.634 305.966 96.6807 305.85 96.6807ZM332.197 93.3203C332.127 93.3203 332.056 93.2969 331.986 93.2736C331.426 93.0402 330.843 92.8302 330.26 92.6435C329.349 92.3635 328.439 92.1068 327.506 91.9201C327.202 91.8501 326.992 91.5467 327.063 91.2433C327.133 90.94 327.436 90.7299 327.739 90.7999C328.696 91.01 329.653 91.2667 330.586 91.5467C331.193 91.7334 331.8 91.9668 332.407 92.2001C332.71 92.3168 332.85 92.6435 332.733 92.9469C332.64 93.2036 332.43 93.3203 332.197 93.3203ZM316.234 91.9901C315.978 91.9901 315.721 91.8034 315.674 91.5467C315.604 91.2433 315.814 90.94 316.118 90.8699C317.705 90.5199 319.338 90.3099 320.948 90.2632C321.275 90.2399 321.532 90.4966 321.555 90.8233C321.578 91.15 321.322 91.4067 320.995 91.43C319.431 91.5 317.891 91.6867 316.351 92.0134C316.328 91.9901 316.281 91.9901 316.234 91.9901Z" fill="#151E2D"/>
<path d="M38.1084 178.172C37.3149 178.172 36.5449 178.149 35.7514 178.102C35.4247 178.079 35.1913 177.799 35.2147 177.495C35.238 177.169 35.4947 176.935 35.8214 176.959C36.5682 177.005 37.3383 177.029 38.1084 177.029C38.8785 177.029 39.6486 177.005 40.4187 176.959C40.7454 176.935 41.0021 177.169 41.0254 177.495C41.0487 177.822 40.8154 178.079 40.4887 178.102C39.7186 178.149 38.9018 178.172 38.1084 178.172ZM29.3105 177.122C29.2639 177.122 29.2172 177.122 29.1706 177.099C28.2371 176.865 27.327 176.609 26.4168 176.328C25.8101 176.142 25.2267 175.932 24.6433 175.698C24.3399 175.582 24.1999 175.255 24.3166 174.952C24.4333 174.648 24.7599 174.508 25.0633 174.625C25.6234 174.835 26.2068 175.045 26.7902 175.232C27.677 175.512 28.5638 175.768 29.4739 175.978C29.7773 176.048 29.964 176.352 29.8939 176.679C29.8239 176.959 29.5906 177.122 29.3105 177.122ZM46.9295 177.122C46.6728 177.122 46.4395 176.935 46.3695 176.679C46.2995 176.375 46.4862 176.072 46.7896 175.978C48.2831 175.628 49.7532 175.162 51.1768 174.625C51.4801 174.508 51.8069 174.672 51.9236 174.952C52.0402 175.255 51.8769 175.582 51.5968 175.698C50.1266 176.258 48.5864 176.725 47.0696 177.099C47.0229 177.122 46.9762 177.122 46.9295 177.122ZM18.9492 172.921C18.8558 172.921 18.7392 172.898 18.6692 172.851C17.3157 172.058 15.9855 171.148 14.7486 170.168C14.4919 169.981 14.4453 169.608 14.6553 169.351C14.842 169.094 15.2154 169.048 15.4721 169.258C16.6856 170.191 17.969 171.078 19.2759 171.848C19.5559 172.011 19.6493 172.361 19.4859 172.641C19.3459 172.828 19.1359 172.921 18.9492 172.921ZM57.2909 172.898C57.1043 172.898 56.8942 172.805 56.8009 172.618C56.6375 172.338 56.7308 171.988 57.0109 171.825C58.3177 171.031 59.6012 170.168 60.8147 169.234C61.0714 169.048 61.4215 169.094 61.6315 169.328C61.8182 169.584 61.7715 169.934 61.5382 170.144C60.3013 171.101 58.9711 172.011 57.6176 172.828C57.5009 172.875 57.4076 172.898 57.2909 172.898ZM10.2914 165.85C10.128 165.85 9.988 165.78 9.87132 165.664C8.82118 164.497 7.8177 163.237 6.90758 161.953C6.72088 161.697 6.79092 161.346 7.04762 161.16C7.30432 160.973 7.65434 161.043 7.84103 161.3C8.72782 162.56 9.68462 163.773 10.7114 164.894C10.9215 165.127 10.8981 165.5 10.6648 165.71C10.5481 165.78 10.408 165.85 10.2914 165.85ZM65.9721 165.804C65.8321 165.804 65.692 165.757 65.5987 165.664C65.3653 165.454 65.342 165.08 65.552 164.847C66.5788 163.703 67.5356 162.49 68.4224 161.253C68.6091 160.996 68.9591 160.926 69.2158 161.113C69.4725 161.3 69.5425 161.65 69.3559 161.907C68.4457 163.19 67.4656 164.45 66.3921 165.617C66.2755 165.734 66.1121 165.804 65.9721 165.804ZM4.08387 156.516C3.87385 156.516 3.66383 156.399 3.57048 156.189C2.89373 154.766 2.31032 153.272 1.82025 151.779C1.72691 151.475 1.89026 151.148 2.19363 151.055C2.497 150.962 2.82371 151.125 2.91705 151.428C3.38378 152.875 3.96721 154.322 4.59729 155.722C4.73731 156.002 4.59727 156.353 4.31724 156.493C4.24723 156.493 4.17722 156.516 4.08387 156.516ZM72.1562 156.469C72.0862 156.469 71.9929 156.446 71.9229 156.422C71.6428 156.282 71.5028 155.956 71.6428 155.652C72.2963 154.276 72.8563 152.829 73.3231 151.359L73.3464 151.312C73.4397 151.008 73.7664 150.845 74.0698 150.938C74.3732 151.032 74.5366 151.358 74.4432 151.662L74.4199 151.709C73.9298 153.225 73.3464 154.696 72.693 156.119C72.5763 156.353 72.3663 156.469 72.1562 156.469ZM0.910126 145.781C0.630089 145.781 0.373383 145.571 0.350046 145.291C0.140019 143.727 0 142.141 0 140.554C0 140.227 0.256706 139.97 0.56008 139.97C0.88679 139.97 1.14349 140.227 1.14349 140.53C1.16683 142.071 1.28351 143.611 1.49354 145.128C1.54021 145.431 1.30685 145.734 1.00348 145.781C0.956805 145.781 0.933463 145.781 0.910126 145.781ZM75.3066 145.688C75.2833 145.688 75.26 145.688 75.2366 145.688C74.9333 145.641 74.6999 145.361 74.7465 145.034C74.9566 143.517 75.0732 141.977 75.0966 140.437C75.0966 140.134 75.3533 139.877 75.68 139.877C76.0067 139.877 76.2401 140.134 76.2401 140.46C76.2168 142.047 76.1001 143.634 75.8901 145.198C75.8434 145.478 75.61 145.688 75.3066 145.688ZM1.05014 134.603C1.0268 134.603 0.980124 134.603 0.956788 134.603C0.653414 134.556 0.443386 134.253 0.490059 133.95C0.74676 132.386 1.09681 130.846 1.5402 129.329C1.63354 129.026 1.96028 128.862 2.26365 128.932C2.56702 129.026 2.73037 129.352 2.66036 129.656C2.21697 131.126 1.89025 132.643 1.63355 134.136C1.56354 134.393 1.30684 134.603 1.05014 134.603ZM75.1666 134.51C74.8866 134.51 74.6532 134.3 74.6066 134.02C74.3499 132.503 73.9998 131.009 73.5797 129.539C73.4864 129.236 73.6731 128.909 73.9765 128.816C74.2799 128.722 74.6065 128.909 74.6999 129.212C75.1433 130.729 75.5167 132.293 75.7734 133.833C75.82 134.136 75.61 134.44 75.3066 134.486C75.2133 134.486 75.1899 134.51 75.1666 134.51ZM4.45725 123.938C4.3639 123.938 4.2939 123.915 4.20056 123.868C3.92052 123.728 3.80384 123.378 3.94386 123.098C4.64395 121.675 5.43739 120.298 6.30083 118.968C6.46419 118.711 6.83758 118.641 7.09428 118.804C7.35098 118.968 7.42098 119.341 7.25762 119.598C6.41751 120.881 5.64743 122.211 4.97067 123.588C4.87732 123.822 4.66728 123.938 4.45725 123.938ZM71.7128 123.845C71.5028 123.845 71.2928 123.728 71.1994 123.518C70.5227 122.141 69.7292 120.811 68.8891 119.528C68.7024 119.271 68.7958 118.898 69.0525 118.734C69.3092 118.547 69.6825 118.641 69.8459 118.898C70.7093 120.204 71.5262 121.605 72.2262 123.005C72.3663 123.285 72.2496 123.635 71.9695 123.775C71.8762 123.845 71.7828 123.845 71.7128 123.845ZM10.8748 114.767C10.7347 114.767 10.5947 114.72 10.4781 114.604C10.2447 114.394 10.2447 114.02 10.4547 113.787C11.5515 112.643 12.7184 111.547 13.9319 110.566C14.1886 110.356 14.5386 110.403 14.7486 110.636C14.9587 110.893 14.912 111.243 14.6786 111.453C13.4885 112.433 12.345 113.484 11.2948 114.58C11.1782 114.697 11.0148 114.767 10.8748 114.767ZM65.272 114.697C65.132 114.697 64.9686 114.627 64.8519 114.51C63.8018 113.39 62.6583 112.34 61.4681 111.383C61.2114 111.173 61.1881 110.823 61.3748 110.566C61.5848 110.31 61.9349 110.286 62.1916 110.473C63.4051 111.477 64.5952 112.55 65.6687 113.694C65.8787 113.927 65.8787 114.277 65.6453 114.51C65.552 114.65 65.412 114.697 65.272 114.697ZM19.6959 107.883C19.4859 107.883 19.2992 107.766 19.2059 107.579C19.0425 107.299 19.1592 106.949 19.4159 106.809C20.7928 106.039 22.2396 105.339 23.6865 104.732C23.9899 104.616 24.3166 104.756 24.4333 105.036C24.5499 105.339 24.4099 105.666 24.1299 105.782C22.7063 106.366 21.3061 107.043 19.976 107.789C19.8826 107.859 19.7893 107.883 19.6959 107.883ZM56.4274 107.836C56.3341 107.836 56.2408 107.813 56.1474 107.766C54.8172 107.019 53.417 106.343 51.9935 105.782C51.6902 105.666 51.5502 105.339 51.6668 105.036C51.7835 104.732 52.1102 104.592 52.4136 104.709C53.8838 105.292 55.3307 105.993 56.7075 106.763C56.9876 106.926 57.0809 107.276 56.9409 107.533C56.8242 107.719 56.6375 107.836 56.4274 107.836ZM30.1507 103.916C29.894 103.916 29.6372 103.729 29.5906 103.472C29.5206 103.169 29.7306 102.865 30.034 102.795C31.5742 102.469 33.161 102.212 34.7246 102.072C35.0513 102.049 35.308 102.282 35.3547 102.585C35.378 102.912 35.1446 103.169 34.8413 103.215C33.3244 103.355 31.7842 103.589 30.2907 103.916C30.244 103.916 30.1973 103.916 30.1507 103.916ZM45.9494 103.892C45.9027 103.892 45.8794 103.892 45.8327 103.869C44.3392 103.542 42.799 103.309 41.2821 103.192C40.9554 103.169 40.7221 102.889 40.7687 102.562C40.7921 102.235 41.0721 102.025 41.3988 102.049C42.9624 102.189 44.5493 102.422 46.0895 102.749C46.3928 102.819 46.6028 103.122 46.5328 103.425C46.4628 103.706 46.2295 103.892 45.9494 103.892Z" fill="#151E2D"/>
<path d="M267.668 133.735L263.491 159.592L262.697 164.563C262.697 168.413 254.483 219.053 250.235 219.053L182.957 172.567L108.303 224.374C104.056 224.374 99.5755 169.883 99.5755 166.033L99.2722 159.592L98.082 133.805L110.077 123.444L178.149 64.636C180.95 62.6057 184.94 62.6057 187.741 64.636L255.743 123.444L267.668 133.735Z" fill="#004A48"/>
<path d="M235.372 133.569V212.679H130.008V110.723H212.315L235.372 133.569Z" fill="white"/>
<path d="M235.373 133.569V136.229H209.633V110.629L212.316 110.722L235.373 133.569Z" fill="#2C447D"/>
<path d="M235.373 133.569H212.316V110.723L235.373 133.569Z" fill="white"/>
<path d="M184.592 187.669L223.167 148.324C233.295 137.986 247.763 132.082 262.932 132.082C266.503 132.082 269.396 134.439 269.396 137.333V190.96V242.533C269.396 245.427 264.589 249.838 261.019 249.838H239.106L184.592 194.204C182.772 192.337 182.772 189.513 184.592 187.669Z" fill="#02855A"/>
<path d="M181.324 187.599L142.749 148.254C132.621 137.916 118.152 132.012 102.984 132.012C99.4132 132.012 96.5195 134.369 96.5195 137.262V190.89V243.093C96.5195 245.987 100.65 249.837 104.221 249.837L126.834 249.767L181.324 194.18C183.144 192.266 183.144 189.443 181.324 187.599Z" fill="#02855A"/>
<path d="M269.396 220.968V243.651C269.396 247.035 265.942 249.789 261.695 249.789H104.221C99.9733 249.789 96.5195 247.035 96.5195 243.651V220.968L178.174 169.138C179.504 168.298 181.091 167.855 182.701 167.808C184.498 167.761 186.295 168.205 187.765 169.138L269.396 220.968Z" fill="#049B5A"/>
<path d="M96.5195 211.515L167.556 173.547L168.956 174.97L96.5195 220.966V211.515Z" fill="#026F56"/>
<path d="M269.393 211.515L198.357 173.547L196.957 174.97L269.393 220.966V211.515Z" fill="#026F56"/>
<path d="M182.677 144.168C174.416 144.168 167.695 150.866 167.695 159.15H197.659C197.659 150.866 190.962 144.168 182.677 144.168Z" fill="#C8DEF4"/>
<path d="M182.674 143.046C186.953 143.046 190.421 139.577 190.421 135.298C190.421 131.02 186.953 127.551 182.674 127.551C178.395 127.551 174.926 131.02 174.926 135.298C174.926 139.577 178.395 143.046 182.674 143.046Z" fill="#C8DEF4"/>
<defs>
<linearGradient id="paint0_linear_6539_210748" x1="166.727" y1="220.117" x2="354.837" y2="198.384" gradientUnits="userSpaceOnUse">
<stop stop-color="#F59A00"/>
<stop offset="1" stop-color="#D27C00"/>
</linearGradient>
</defs>
</svg>
